:SAMPLES-PER-SECOND 30
:FULLY-SPECIFIED
:DEGREES
1
root  11.1192 40.4397 -5.89628 -40.3544 -86.6229 35.6711
RightUpLeg  -1.06694 -11.7111 -14.0382
RightLeg  5.51179 0.706051 1.98102
RightFoot  2.113 -0.931955 7.97727
RightToes  0.00048216 0.542163 -0.142577
Spine  8.87474 -0.0277506 -3.4728
Spine1  -1.9295 -0.404419 1.12921
HEad  -0.0199023 1.57695 1.27834
LeftShoulder1  1.06541 -1.94474 -12.3818
LeftArm  -21.489 10.3519 -5.46591
LeftForeArm  11.1306 -0.59237 0.265687
LeftHand  -0.25398 0.0180481 5.50724
RightShoulder  0.418045 -0.808721 7.66749
RightArm  -20.423 -8.83024 3.69954
RightForeArm  14.3063 4.90378 1.86287
RightHand  -2.31925 10.2368 -17.5674
LeftUpLeg  -0.257225 6.23117 3.63319
LeftLeg  9.39225 3.80421 -1.57814
LeftFoot  -4.5391 0.188989 -2.6575
LeftToes  1.06241e-005 4.65855e-005 -8.18508e-006
2
root  11.1162 40.4397 -5.89247 -40.3119 -86.625 35.6512
RightUpLeg  -1.07927 -11.7084 -14.0366
RightLeg  5.49643 0.697882 1.98205
RightFoot  2.12214 -0.93403 8.00963
RightToes  0.00048216 0.542163 -0.142577
Spine  8.86044 -0.0287836 -3.48321
Spine1  -1.9369 -0.413591 1.18104
HEad  0.0851648 1.51442 1.27794
LeftShoulder1  1.08423 -2.02072 -12.4629
LeftArm  -21.5009 10.4114 -5.39089
LeftForeArm  11.2004 -0.569393 0.291647
LeftHand  -0.25398 0.0180481 5.50724
RightShoulder  0.418019 -0.759997 7.61129
RightArm  -20.3811 -8.88349 3.69304
RightForeArm  14.0186 4.90551 1.89086
RightHand  -2.33305 10.2479 -17.6555
LeftUpLeg  -0.303303 6.25824 3.61986
LeftLeg  9.44409 3.78339 -1.56766
LeftFoot  -4.54542 0.183985 -2.57966
LeftToes  1.06241e-005 4.65855e-005 -8.18508e-006
3
root  11.11 40.4397 -5.88617 -40.1973 -86.6364 35.565
RightUpLeg  -1.09569 -11.7 -14.0288
RightLeg  5.48256 0.6888 1.98376
RightFoot  2.13646 -0.934489 8.0168
RightToes  0.00048216 0.542163 -0.142577
Spine  8.85679 -0.0358592 -3.46867
Spine1  -1.94319 -0.4271 1.22229
HEad  0.260792 1.4211 1.3048
LeftShoulder1  1.09873 -2.08229 -12.5123
LeftArm  -21.4897 10.4972 -5.33223
LeftForeArm  11.2334 -0.552766 0.306795
LeftHand  -0.25398 0.0180481 5.50724
RightShoulder  0.41665 -0.739961 7.5502
RightArm  -20.3065 -8.93205 3.69423
RightForeArm  13.6646 4.99544 1.95059
RightHand  -2.33853 10.2285 -17.7159
LeftUpLeg  -0.364125 6.28596 3.60447
LeftLeg  9.52093 3.77278 -1.5383
LeftFoot  -4.55639 0.178125 -2.48852
LeftToes  1.06241e-005 4.65855e-005 -8.18508e-006
4
root  11.1016 40.4397 -5.8809 -40.1164 -86.6564 35.4914
RightUpLeg  -1.09058 -11.6933 -14.0203
RightLeg  5.47791 0.697494 1.98764
RightFoot  2.14243 -0.93333 7.99872
RightToes  0.00048216 0.542163 -0.142577
Spine  8.87254 -0.0525217 -3.4356
Spine1  -1.94753 -0.442568 1.22077
HEad  0.4357 1.37579 1.36545
LeftShoulder1  1.0908 -2.05703 -12.4531
LeftArm  -21.4666 10.5772 -5.35867
LeftForeArm  11.1651 -0.567569 0.298375
LeftHand  -0.25398 0.0180481 5.50724
RightShoulder  0.410245 -0.780499 7.51162
RightArm  -20.2721 -8.9178 3.72103
RightForeArm  13.6212 5.17438 1.99834
RightHand  -2.32983 10.197 -17.6867
LeftUpLeg  -0.386356 6.28894 3.59775
LeftLeg  9.5762 3.78568 -1.50277
LeftFoot  -4.57909 0.177182 -2.47385
LeftToes  1.06241e-005 4.65855e-005 -8.18508e-006
5
root  11.091 40.4397 -5.87679 -40.295 -86.6764 35.6744
RightUpLeg  -1.08071 -11.6991 -14.0284
RightLeg  5.47423 0.728862 1.9977
RightFoot  2.1336 -0.933601 8.00294
RightToes  0.00048216 0.542163 -0.142577
Spine  8.85162 -0.0693284 -3.4089
Spine1  -1.92927 -0.455135 1.20295
HEad  0.58517 1.40075 1.41335
LeftShoulder1  1.07252 -1.98818 -12.3555
LeftArm  -21.512 10.6435 -5.41665
LeftForeArm  11.1755 -0.570239 0.321147
LeftHand  -0.25398 0.0180481 5.50724
RightShoulder  0.402182 -0.828556 7.47634
RightArm  -20.3181 -8.86674 3.74731
RightForeArm  13.7863 5.33716 2.00926
RightHand  -2.32597 10.2228 -17.6311
LeftUpLeg  -0.384714 6.28626 3.59104
LeftLeg  9.60508 3.81236 -1.48411
LeftFoot  -4.60877 0.17877 -2.49854
LeftToes  1.06241e-005 4.65855e-005 -8.18508e-006
6
root  11.0796 40.4397 -5.87194 -40.8394 -86.7046 36.2499
RightUpLeg  -1.10232 -11.7107 -14.0431
RightLeg  5.46593 0.772544 2.0067
RightFoot  2.12165 -0.935624 8.03449
RightToes  0.00048216 0.542163 -0.142577
Spine  8.75741 -0.0766534 -3.36863
Spine1  -1.85187 -0.451139 1.15625
HEad  0.685652 1.45498 1.41956
LeftShoulder1  1.05403 -1.91179 -12.2807
LeftArm  -21.6381 10.684 -5.46095
LeftForeArm  11.333 -0.562476 0.385825
LeftHand  -0.25398 0.0180481 5.50724
RightShoulder  0.399065 -0.846716 7.47019
RightArm  -20.3979 -8.84209 3.71219
RightForeArm  13.8611 5.42236 2.00249
RightHand  -2.32086 10.2717 -17.542
LeftUpLeg  -0.401192 6.3019 3.57771
LeftLeg  9.62503 3.85207 -1.48731
LeftFoot  -4.6275 0.177853 -2.48428
LeftToes  1.06241e-005 4.65855e-005 -8.18508e-006
